<svg width="17" height="17" viewBox="0 0 17 17" fill="none" xmlns="http://www.w3.org/2000/svg">
<path fill-rule="evenodd" clip-rule="evenodd" d="M8.23781 6.61273L14.3721 0.478439C14.8207 0.0298107 15.5481 0.0298107 15.9967 0.478439C16.4454 0.927067 16.4454 1.65444 15.9967 2.10307L9.86244 8.23736L15.9978 14.3727C16.4465 14.8214 16.4465 15.5487 15.9978 15.9974C15.5492 16.446 14.8218 16.446 14.3732 15.9974L8.23781 9.86198L2.10246 15.9973C1.65383 16.446 0.926457 16.446 0.477829 15.9973C0.0292003 15.5487 0.0292003 14.8213 0.477829 14.3727L6.61319 8.23736L0.478921 2.10309C0.0302923 1.65446 0.0302922 0.927092 0.478921 0.478464C0.927549 0.0298352 1.65492 0.0298353 2.10355 0.478464L8.23781 6.61273Z" fill="#848A97"/>
</svg>
